<svg xmlns="http://www.w3.org/2000/svg" width="1920" height="1920" viewBox="0 0 1920 1920">
  <rect width="1920" height="1920" fill="#ffffff"/>
  <g fill="#000000" fill-rule="nonzero">

    <!-- ===== SEAT / CROSSED LEGS (wide, flat lens with pointed side tips) ===== -->
    <path d="M 960 1280
             C 1180 1280 1372 1322 1478 1382
             C 1560 1428 1584 1466 1560 1500
             C 1530 1542 1400 1600 1252 1638
             C 1148 1664 1052 1678 960 1678
             C 868 1678 772 1664 668 1638
             C 520 1600 390 1542 360 1500
             C 336 1466 360 1428 442 1382
             C 548 1322 740 1280 960 1280 Z"/>

    <!-- ===== FEET ===== -->
    <path d="M 1000 1576
             C 1000 1650 946 1716 856 1752
             C 776 1784 686 1782 670 1756
             C 654 1730 700 1686 782 1642
             C 866 1598 948 1570 1000 1566 Z"/>
    <path d="M 920 1576
             C 920 1650 974 1716 1064 1752
             C 1144 1784 1234 1782 1250 1756
             C 1266 1730 1220 1686 1138 1642
             C 1054 1598 972 1570 920 1566 Z"/>

    <!-- ===== TORSO (sides form the inner edge of the arm gap) ===== -->
    <path d="M 862 782
             C 830 826 818 872 816 926
             C 814 986 822 1052 830 1112
             C 838 1176 848 1230 858 1274
             C 878 1342 1042 1342 1062 1274
             C 1072 1230 1082 1176 1090 1112
             C 1098 1052 1106 986 1104 926
             C 1102 872 1090 826 1058 782 Z"/>

    <!-- ===== LEFT ARM: shoulder cap -> upper arm -> elbow -> forearm -> wrist ===== -->
    <path d="M 902 784
             C 838 788 780 812 736 856
             C 694 898 674 954 668 1022
             C 662 1090 664 1146 672 1182
             C 678 1216 656 1244 600 1272
             C 560 1292 520 1304 494 1310
             L 504 1370
             C 556 1360 620 1338 684 1306
             C 736 1280 766 1258 776 1240
             C 790 1214 792 1120 786 1058
             C 780 996 790 950 812 918
             C 830 892 856 862 884 838 Z"/>

    <!-- ===== RIGHT ARM ===== -->
    <path d="M 1018 784
             C 1082 788 1140 812 1184 856
             C 1226 898 1246 954 1252 1022
             C 1258 1090 1256 1146 1248 1182
             C 1242 1216 1264 1244 1320 1272
             C 1360 1292 1400 1304 1426 1310
             L 1416 1370
             C 1364 1360 1300 1338 1236 1306
             C 1184 1280 1154 1258 1144 1240
             C 1130 1214 1128 1120 1134 1058
             C 1140 996 1130 950 1108 918
             C 1090 892 1064 862 1036 838 Z"/>

    <!-- ===== LEFT HAND (chin mudra: splayed fingers + thumb loop) ===== -->
    <path d="M 500 1288
             C 466 1282 430 1288 408 1300
             C 384 1272 344 1256 320 1268
             C 300 1278 306 1300 330 1310
             C 300 1296 264 1294 250 1314
             C 236 1334 256 1352 284 1354
             C 262 1364 250 1386 264 1400
             C 282 1416 324 1402 348 1380
             C 390 1398 452 1400 508 1386 Z"/>

    <!-- ===== RIGHT HAND ===== -->
    <path d="M 1420 1288
             C 1454 1282 1490 1288 1512 1300
             C 1536 1272 1576 1256 1600 1268
             C 1620 1278 1614 1300 1590 1310
             C 1620 1296 1656 1294 1670 1314
             C 1684 1334 1664 1352 1636 1354
             C 1658 1364 1670 1386 1656 1400
             C 1638 1416 1596 1402 1572 1380
             C 1530 1398 1468 1400 1412 1386 Z"/>

    <!-- ===== NECK ===== -->
    <path d="M 898 640
             C 894 700 886 744 876 800
             L 1044 800
             C 1034 744 1026 700 1022 640 Z"/>

    <!-- ===== HEAD + HAIR ===== -->
    <path d="M 960 326
             C 1048 326 1110 396 1112 484
             C 1113 534 1096 560 1078 574
             C 1098 606 1070 656 1038 688
             C 1018 708 1010 722 1008 740
             L 912 740
             C 910 722 902 708 882 688
             C 850 656 822 606 842 574
             C 824 560 807 534 808 484
             C 810 396 872 326 960 326 Z"/>

    <!-- ===== TOPKNOT BUN ===== -->
    <path d="M 960 208
             C 1018 208 1062 248 1062 298
             C 1062 348 1018 380 960 380
             C 902 380 858 348 858 298
             C 858 248 902 208 960 208 Z"/>

  </g>
</svg>
